<mxfile host="app.diagrams.net" modified="2024-01-15T11:14:36.500Z" agent="Mozilla/5.0 (Windows NT 10.0; Win64; x64) AppleWebKit/537.36 (KHTML, like Gecko) Chrome/120.0.0.0 Safari/537.36" etag="orVtWUmvs2SRQKMDZKX8" version="22.1.18" type="device">
  <diagram name="Page-1" id="tqnxchcYoiLWz-_cujTB">
    <mxGraphModel dx="1434" dy="746" grid="1" gridSize="10" guides="1" tooltips="1" connect="1" arrows="1" fold="1" page="1" pageScale="1" pageWidth="850" pageHeight="1100" math="0" shadow="0">
      <root>
        <mxCell id="0" />
        <mxCell id="1" parent="0" />
        <mxCell id="XF90SXkwE1n7BPRF2Y8H-5" style="edgeStyle=orthogonalEdgeStyle;rounded=0;orthogonalLoop=1;jettySize=auto;html=1;entryX=0.5;entryY=0;entryDx=0;entryDy=0;curved=1;fillColor=#dae8fc;strokeColor=#6c8ebf;" edge="1" parent="1" source="XF90SXkwE1n7BPRF2Y8H-1" target="XF90SXkwE1n7BPRF2Y8H-2">
          <mxGeometry relative="1" as="geometry">
            <Array as="points">
              <mxPoint x="530" y="240" />
            </Array>
          </mxGeometry>
        </mxCell>
        <mxCell id="XF90SXkwE1n7BPRF2Y8H-1" value="GCpause" style="ellipse;whiteSpace=wrap;html=1;aspect=fixed;" vertex="1" parent="1">
          <mxGeometry x="350" y="200" width="80" height="80" as="geometry" />
        </mxCell>
        <mxCell id="XF90SXkwE1n7BPRF2Y8H-6" style="edgeStyle=orthogonalEdgeStyle;rounded=0;orthogonalLoop=1;jettySize=auto;html=1;exitX=0.5;exitY=1;exitDx=0;exitDy=0;entryX=0.5;entryY=1;entryDx=0;entryDy=0;curved=1;fillColor=#d5e8d4;strokeColor=#82b366;" edge="1" parent="1" source="XF90SXkwE1n7BPRF2Y8H-2" target="XF90SXkwE1n7BPRF2Y8H-4">
          <mxGeometry relative="1" as="geometry">
            <mxPoint x="430" y="430" as="targetPoint" />
          </mxGeometry>
        </mxCell>
        <mxCell id="XF90SXkwE1n7BPRF2Y8H-2" value="GCpropagate" style="ellipse;whiteSpace=wrap;html=1;aspect=fixed;" vertex="1" parent="1">
          <mxGeometry x="490" y="300" width="80" height="80" as="geometry" />
        </mxCell>
        <mxCell id="XF90SXkwE1n7BPRF2Y8H-8" style="edgeStyle=orthogonalEdgeStyle;rounded=0;orthogonalLoop=1;jettySize=auto;html=1;exitX=0.5;exitY=0;exitDx=0;exitDy=0;entryX=0;entryY=0.5;entryDx=0;entryDy=0;curved=1;fillColor=#fff2cc;strokeColor=#d6b656;" edge="1" parent="1" source="XF90SXkwE1n7BPRF2Y8H-4" target="XF90SXkwE1n7BPRF2Y8H-1">
          <mxGeometry relative="1" as="geometry" />
        </mxCell>
        <mxCell id="XF90SXkwE1n7BPRF2Y8H-4" value="GCsweep" style="ellipse;whiteSpace=wrap;html=1;aspect=fixed;" vertex="1" parent="1">
          <mxGeometry x="200" y="300" width="80" height="80" as="geometry" />
        </mxCell>
        <mxCell id="XF90SXkwE1n7BPRF2Y8H-10" value="虚拟机内存总量超过上一轮GC结束后，余下内存总量的两倍时，开始新的GC传播" style="rounded=0;whiteSpace=wrap;html=1;fillColor=#dae8fc;strokeColor=#6c8ebf;" vertex="1" parent="1">
          <mxGeometry x="480" y="170" width="270" height="60" as="geometry" />
        </mxCell>
        <mxCell id="XF90SXkwE1n7BPRF2Y8H-13" value="graylist清空时，进入sweep阶段" style="rounded=0;whiteSpace=wrap;html=1;fillColor=#d5e8d4;strokeColor=#82b366;" vertex="1" parent="1">
          <mxGeometry x="270" y="420" width="220" height="60" as="geometry" />
        </mxCell>
        <mxCell id="XF90SXkwE1n7BPRF2Y8H-15" value="清空白色的GC object，对“另一种白”的对象不作处理，留给下一轮GC清理" style="rounded=0;whiteSpace=wrap;html=1;fillColor=#fff2cc;strokeColor=#d6b656;" vertex="1" parent="1">
          <mxGeometry x="60" y="180" width="220" height="60" as="geometry" />
        </mxCell>
      </root>
    </mxGraphModel>
  </diagram>
</mxfile>
